<svg xmlns="http://www.w3.org/2000/svg" viewBox="0 0 320 94.27266579461971" height="94.27266579461971" width="320" style="width: 320px; height: 94.2727px; position: absolute; top: 50%; left: 50%; transform: translate(-50%, -50%) scale(0.945313); z-index: 0; cursor: pointer;"><defs id="SvgjsDefs1070"></defs><g id="SvgjsG1071" featurekey="symbolFeature-0" transform="matrix(0.17761831446030332,0,0,0.17761831446030332,-2.8283565663270624,-5.34631133301114)" fill="#51dacf"><metadata xmlns="http://www.w3.org/2000/svg">Created by potrace 1.14, written by Peter Selinger 2001-2017</metadata><g xmlns="http://www.w3.org/2000/svg" transform="translate(0.000000,600.000000) scale(0.100000,-0.100000)" fill="#51dacf" stroke="none"><path d="M3823 5689 c-157 -20 -367 -116 -546 -249 -133 -99 -333 -292 -440 -425 -141 -175 -270 -385 -348 -564 l-36 -84 34 -96 c72 -201 117 -414 132 -623 4 -69 11 -131 15 -137 5 -7 41 -11 95 -11 101 0 206 24 319 72 l76 33 2 70 c6 192 135 340 391 450 74 32 185 65 265 79 42 8 81 52 183 211 400 620 402 1210 4 1275 -35 5 -68 9 -74 9 -5 -1 -38 -5 -72 -10z"></path><path d="M1325 5338 c-118 -44 -207 -165 -257 -349 -21 -76 -23 -106 -23 -299 0 -182 4 -232 23 -326 65 -325 166 -591 321 -852 105 -176 168 -255 211 -263 279 -56 495 -124 675 -214 l127 -62 39 59 c61 96 96 208 114 364 l7 62 -47 23 c-57 29 -125 100 -159 168 -46 89 -59 169 -52 321 5 134 13 177 56 322 l22 76 -45 101 c-100 222 -235 431 -382 588 -105 113 -192 180 -313 241 -90 45 -98 46 -190 49 -54 1 -110 -2 -127 -9z"></path><path d="M3953 4166 l-92 -11 -64 -75 c-144 -168 -335 -338 -499 -444 -56 -36 -88 -64 -88 -75 0 -25 66 -130 122 -195 26 -30 84 -82 128 -115 l81 -61 37 25 c58 38 121 57 197 57 179 2 351 -86 543 -278 l102 -103 111 -12 c144 -15 485 -6 602 15 143 27 256 63 367 118 132 64 234 160 269 252 105 282 -205 604 -758 786 -334 110 -741 155 -1058 116z"></path><path d="M995 3210 c-409 -35 -713 -176 -806 -374 -145 -307 253 -682 907 -852 254 -66 564 -95 809 -76 85 7 161 15 169 18 8 3 58 54 110 114 145 165 330 323 496 426 33 20 60 42 60 49 0 6 -14 40 -31 74 -36 72 -164 208 -247 263 l-53 36 -71 -37 c-69 -35 -74 -36 -182 -36 -105 0 -115 2 -192 36 -119 52 -217 122 -332 237 l-104 103 -71 8 c-116 15 -354 20 -462 11z"></path><path d="M3519 3068 c-63 -85 -110 -229 -124 -376 l-7 -67 46 -24 c57 -30 126 -103 160 -169 75 -149 75 -369 -1 -625 l-26 -87 29 -72 c16 -39 59 -128 96 -196 192 -351 431 -600 670 -694 78 -32 225 -32 289 0 103 51 187 173 230 337 30 113 37 357 15 520 -39 298 -147 617 -302 897 -55 98 -105 175 -198 301 -9 11 -41 22 -92 32 -238 42 -449 111 -644 210 l-110 55 -31 -42z"></path><path d="M3135 2580 c-68 -10 -156 -36 -241 -72 l-72 -30 -4 -86 c-3 -68 -10 -98 -30 -138 -94 -181 -310 -314 -609 -374 -55 -11 -57 -13 -111 -88 -428 -600 -513 -1211 -191 -1369 46 -22 74 -28 147 -31 265 -12 586 157 901 472 176 176 305 343 425 551 58 100 140 276 140 301 0 9 -14 55 -31 102 -71 200 -118 433 -134 663 l-7 97 -45 6 c-52 7 -68 6 -138 -4z"></path></g></g><g id="SvgjsG1072" featurekey="nameFeature-0" transform="matrix(0.6752194880608984,0,0,0.6752194880608984,119.59486772761792,27.437541218566352)" fill="#51dacf"><path d="M15.84 19.28 l4.56 17.52 l5.44 -17.52 l2.44 0 l-6.72 20.72 l-2.56 0 l-4.52 -17.4 l-0.08 0 l-4.6 17.4 l-2.88 0 l-6.32 -20.72 l2.4 0 l5.36 17.68 l4.8 -17.68 l2.68 0 z M40 40.56 c-5.28 -0.08 -9.6 -3.68 -9.6 -10.92 c0 -6.04 3.2 -10.92 9.6 -10.92 c6.48 0 9.6 4.84 9.6 10.92 c0 6.56 -3.8 10.92 -9.6 10.92 z M47.04 29.64 c-0.04 -4.88 -1.96 -8.76 -7.04 -8.76 c-5.04 0 -7.04 4.28 -7.04 8.76 c0 5.16 2.44 8.76 7.04 8.76 c5.04 0 7.04 -4.32 7.04 -8.76 z M68.04 30.560000000000002 l0 -11.28 l2.4 0 l0 20.72 l-2.4 0 l0 -2.88 c-1.28 1.44 -3.04 3.44 -6.68 3.44 c-5.52 0 -7.36 -3.32 -7.36 -7.64 l0 -13.64 l2.4 0 l0 13.6 c0 3.56 1.56 5.52 5.32 5.52 c3.96 0 6.32 -3.28 6.32 -7.84 z M79.00000000000001 40 l-2.4 0 l0 -28.8 l2.4 0 l0 28.8 z M101.12 29.560000000000002 c0 -4.68 -2.64 -8.68 -7 -8.68 c-4.96 0 -7.28 4.2 -7.08 9.4 c0.04 5.2 3.04 8.12 7.08 8.12 c4.52 0 7 -3.84 7 -8.84 z M101.12 22.6 l0 -11.4 l2.4 0 l0 28.8 l-2.4 0 l0 -3.64 l-0.08 0 c-1.4 2.72 -4.56 4.2 -7.2 4.2 c-6.68 0 -9.36 -4.76 -9.36 -10.88 c0 -5.8 2.92 -10.96 9.24 -10.96 c2.92 0 5.88 1.36 7.4 3.88 z M120.52000000000001 47.88 l0 -2.24 c0.64 0.12 1.32 0.24 2 0.24 c2.72 0 3.12 -3.92 4.04 -5.72 l-8.04 -20.88 l2.68 0 l6.64 17.8 l6.64 -17.8 l2.6 0 l-7.72 20.44 c-1.96 5.2 -3.24 8.44 -6.56 8.44 c-0.84 0 -1.64 -0.12 -2.28 -0.28 z M148.92000000000002 40.56 c-5.28 -0.08 -9.6 -3.68 -9.6 -10.92 c0 -6.04 3.2 -10.92 9.6 -10.92 c6.48 0 9.6 4.84 9.6 10.92 c0 6.56 -3.8 10.92 -9.6 10.92 z M155.96 29.64 c-0.04 -4.88 -1.96 -8.76 -7.04 -8.76 c-5.04 0 -7.04 4.28 -7.04 8.76 c0 5.16 2.44 8.76 7.04 8.76 c5.04 0 7.04 -4.32 7.04 -8.76 z M176.96000000000004 30.560000000000002 l0 -11.28 l2.4 0 l0 20.72 l-2.4 0 l0 -2.88 c-1.28 1.44 -3.04 3.44 -6.68 3.44 c-5.52 0 -7.36 -3.32 -7.36 -7.64 l0 -13.64 l2.4 0 l0 13.6 c0 3.56 1.56 5.52 5.32 5.52 c3.96 0 6.32 -3.28 6.32 -7.84 z M198.80000000000004 29.84 l0 10.16 l-2.4 0 l0 -20.72 l2.4 0 l0 3.88 l0.08 0 c1.32 -3.32 3.28 -4.44 6.76 -4.44 l0 2.6 c-5.4 -0.12 -6.84 3.88 -6.84 8.52 z M223.16000000000003 32.36 l0 -3.24 c-2.04 0.84 -4.12 1 -6.2 1.16 c-3.64 0.28 -5.84 1.6 -5.84 4.4 c0 2.52 2.2 3.72 4.48 3.72 c3.8 0 7.56 -1.84 7.56 -6.04 z M215.80000000000004 28.36 l3.32 -0.44 c0.88 -0.08 2.36 -0.32 3.16 -0.68 s0.88 -1.44 0.88 -2.16 c0 -2.44 -1.44 -4.2 -5.16 -4.2 c-3.32 0 -5.6 1.08 -6.04 4.68 l-2.44 0 c0.36 -4.88 4 -6.84 8.52 -6.84 c4.2 0 7.52 1.64 7.52 6.44 l0 11.28 c0 1.88 0.48 2.32 2.52 1.6 l0 1.88 c-0.36 0.12 -1.2 0.4 -1.88 0.4 c-0.4 0 -0.72 -0.04 -1.08 -0.12 c-1.6 -0.24 -1.88 -1.64 -1.92 -3.08 c-2 2.24 -4.72 3.44 -7.72 3.44 c-3.64 0 -6.92 -1.96 -6.92 -5.96 c0 -3.48 2.4 -5.6 7.24 -6.24 z M239.12000000000003 38.12 l0 1.96 c-0.56 0.12 -1.6 0.48 -2.76 0.48 c-2.36 0 -3.68 -1.04 -3.68 -4.12 l0 -15.16 l-2.92 0 l0 -2 l2.92 0 l0 -5.76 l2.4 0 l0 5.76 l3.88 0 l0 2 l-3.88 0 l0 14.2 c0 2.04 0.08 2.92 2.08 2.92 c0.64 0 1.32 -0.12 1.96 -0.28 z M245.36000000000004 40 l-2.4 0 l0 -28.8 l2.4 0 l0 10.96 c1.92 -2.04 3.8 -3.44 6.68 -3.44 c2.52 0 4.84 0.8 6.32 2.96 c1 1.48 1.04 3.04 1.04 4.76 l0 13.56 l-2.4 0 l0 -13.52 c0 -3.72 -1.52 -5.6 -5.36 -5.6 c-2.96 0 -5 1.92 -5.76 4.04 c-0.48 1.32 -0.52 2.48 -0.52 3.92 l0 11.16 z M266.68000000000006 28.2 l13.52 0 c0 -4.04 -2.24 -7.32 -6.56 -7.32 c-4.24 0 -6.48 3.4 -6.96 7.32 z M282.76000000000005 30.2 l-16.08 0 c-0.04 4.48 2.36 8.2 6.96 8.2 c3.12 0 5.56 -1.72 6.28 -4.76 l2.68 0 c-1.2 3.92 -3.68 6.92 -8.96 6.92 c-6.64 0 -9.52 -4.72 -9.52 -10.84 c0 -6.04 3.6 -11 9.52 -11 c5.68 0 9.16 4.04 9.12 11.48 z M289.96000000000004 29.84 l0 10.16 l-2.4 0 l0 -20.72 l2.4 0 l0 3.88 l0.08 0 c1.32 -3.32 3.28 -4.44 6.76 -4.44 l0 2.6 c-5.4 -0.12 -6.84 3.88 -6.84 8.52 z"></path></g></svg>
