<svg xmlns="http://www.w3.org/2000/svg" viewBox="0 0 369.7695137611495 95.23048623885052" height="95.23048623885052" width="369.7695137611495" style="width: 369.77px; height: 95.2305px; position: absolute; top: 50%; left: 50%; transform: translate(-50%, -50%) scale(0.818077); z-index: 0; cursor: pointer;"><defs id="SvgjsDefs1369"></defs><g id="SvgjsG1370" featurekey="hmhgWD-0" transform="matrix(0.9981851427332884,0,0,0.9981851427332884,-3.294010923422675,-1.2940109234226749)" fill="#1891ac"><g xmlns="http://www.w3.org/2000/svg"><path d="M40,50c0-2.4,0.9-4.6,2.3-6.4c-3.5-1.7-7.3-4.7-11.7-9.4c-1.2-1.2-2.5-2.2-3.5-3.5L3.3,50l23.7,19.2c1-0.7,2.3-2.3,3.5-3.5   c4.5-4.6,8.5-7.5,12-9.1C41,54.9,40,52.5,40,50z"></path><path d="M34.2,30.6c4.6,4.5,7.4,8.5,9.1,12C45.1,41,47.4,40,50,40c2.4,0,4.6,0.9,6.4,2.3c1.7-3.5,4.7-7.3,9.4-11.7   c1.2-1.2,2.2-2.5,3.5-3.5L50,3.3L30.8,27.1C31.5,28,33.1,29.4,34.2,30.6z"></path><path d="M72.9,30.8c-1,1.2-2.2,2.4-3.5,3.5c-4,3.3-7.8,6.9-11.9,9.2c1.5,1.8,2.4,4,2.4,6.5c0,2.6-1,4.9-2.6,6.7   c4.2,2.1,8,5.8,12,9.1c1.3,1.1,2.5,2.2,3.5,3.5L96.7,50L72.9,30.8z"></path><path d="M65.8,69.4c-3.3-4-6.9-7.8-9.2-11.9c-1.8,1.5-4,2.4-6.5,2.4c-2.6,0-4.9-1-6.7-2.6c-2.1,4.2-5.7,8-9,12   c-1.1,1.3-2.2,2.5-3.5,3.5L50,96.7l19.2-23.7C68,71.9,66.8,70.8,65.8,69.4z"></path></g></g><g id="SvgjsG1371" featurekey="1RRcwp-0" transform="matrix(1.746731204817323,0,0,1.746731204817323,112.05676521603115,20.707390523431904)" fill="#d2ecf9"><path d="M11.66 20 l-2.2 0 l-2.5 -4.4 l-2.48 4.4 l-2.22 0 l-1.72 -9.16 l2.38 0 l1.04 5.48 l1.92 -3.38 l2.16 0 l1.94 3.38 l1.04 -5.48 l2.36 0 z M19.34 20.22 c-1.24 0 -2.46 -0.5 -3.4 -1.4 c-0.9 -0.94 -1.4 -2.16 -1.4 -3.4 c0 -1.26 0.5 -2.48 1.4 -3.4 c0.92 -0.88 2.12 -1.38 3.4 -1.38 c1.32 0 2.52 0.5 3.38 1.38 c0.92 0.92 1.42 2.12 1.42 3.4 s-0.5 2.48 -1.42 3.4 c-0.9 0.9 -2.1 1.4 -3.38 1.4 z M19.34 12.92 c-1.34 0 -2.44 1.12 -2.44 2.5 s1.1 2.5 2.44 2.5 c1.36 0 2.46 -1.12 2.46 -2.5 s-1.1 -2.5 -2.46 -2.5 z M30.280000000000005 20.22 c-1.16 0 -2.24 -0.42 -3.02 -1.2 c-0.82 -0.78 -1.26 -1.84 -1.26 -2.98 l0 -5.2 l2.52 0 l0 5.2 c0 0.94 0.78 1.7 1.76 1.7 s1.78 -0.76 1.78 -1.7 l0 -5.2 l2.52 0 l0 5.2 c0 1.12 -0.46 2.18 -1.28 2.98 c-0.8 0.78 -1.86 1.2 -3.02 1.2 z M39.480000000000004 20 l-2.6 0 l0 -14.68 l2.6 0 l0 14.68 z M46.16 20.18 c-1.26 0 -2.46 -0.48 -3.38 -1.38 c-0.9 -0.92 -1.4 -2.12 -1.4 -3.38 s0.5 -2.46 1.4 -3.38 c0.9 -0.9 2.1 -1.38 3.38 -1.38 c0.84 0 1.6 0.3 2.26 0.9 l0.1 0.08 l0 -6.32 l2.42 0 l0 14.68 l-2.42 0 l0 -0.72 l-0.1 0.1 c-0.72 0.7 -1.54 0.8 -2.26 0.8 z M46.16 13 c-1.28 0 -2.36 1.12 -2.36 2.42 c0 1.32 1.08 2.42 2.36 2.42 s2.36 -1.1 2.36 -2.42 c0 -1.3 -1.08 -2.42 -2.36 -2.42 z M61.2 25.32 l-2.62 0 l2.18 -5.3 l-3.66 -9.18 l2.68 0 l2.28 5.7 l2.32 -5.7 l2.66 0 z M72.33999999999999 20.22 c-1.24 0 -2.46 -0.5 -3.4 -1.4 c-0.9 -0.94 -1.4 -2.16 -1.4 -3.4 c0 -1.26 0.5 -2.48 1.4 -3.4 c0.92 -0.88 2.12 -1.38 3.4 -1.38 c1.32 0 2.52 0.5 3.38 1.38 c0.92 0.92 1.42 2.12 1.42 3.4 s-0.5 2.48 -1.42 3.4 c-0.9 0.9 -2.1 1.4 -3.38 1.4 z M72.33999999999999 12.92 c-1.34 0 -2.44 1.12 -2.44 2.5 s1.1 2.5 2.44 2.5 c1.36 0 2.46 -1.12 2.46 -2.5 s-1.1 -2.5 -2.46 -2.5 z M83.28 20.22 c-1.16 0 -2.24 -0.42 -3.02 -1.2 c-0.82 -0.78 -1.26 -1.84 -1.26 -2.98 l0 -5.2 l2.52 0 l0 5.2 c0 0.94 0.78 1.7 1.76 1.7 s1.78 -0.76 1.78 -1.7 l0 -5.2 l2.52 0 l0 5.2 c0 1.12 -0.46 2.18 -1.28 2.98 c-0.8 0.78 -1.86 1.2 -3.02 1.2 z M97.19999999999999 20 l-2.52 0 l0 -9.16 l2.52 0 l0 0.74 c0.72 -0.72 1.8 -0.96 2.52 -0.96 l0.6 0 l-0.6 2.5 l-0.38 0 c-1.18 0 -2.14 0.92 -2.14 2.02 l0 4.86 z M105.74 20.18 c-1.26 0 -2.46 -0.48 -3.38 -1.38 c-0.9 -0.92 -1.4 -2.12 -1.4 -3.38 s0.5 -2.46 1.4 -3.38 c0.9 -0.9 2.1 -1.38 3.38 -1.38 c0.84 0 1.6 0.3 2.26 0.9 l0.1 0.08 l0 -0.8 l2.42 0 l0 9.16 l-2.42 0 l0 -0.72 l-0.1 0.1 c-0.72 0.7 -1.54 0.8 -2.26 0.8 z M105.74 13 c-1.28 0 -2.36 1.12 -2.36 2.42 c0 1.32 1.08 2.42 2.36 2.42 s2.36 -1.1 2.36 -2.42 c0 -1.3 -1.08 -2.42 -2.36 -2.42 z M119.28 20 l-2.4 0 c-0.88 0 -1.7 -0.34 -2.3 -0.94 c-0.62 -0.62 -0.94 -1.42 -0.94 -2.3 l0 -3.8 l-1.28 0 l0 -2.06 l1.28 0 l0 -3.6 l2.38 0 l0 3.6 l2.66 0 l0 2.06 l-2.66 0 l0 3.76 c0 0.5 0.44 0.96 0.88 0.96 l1.74 0 z M129.64 20 l-2.52 0 l0 -4.9 c0 -1.08 -0.86 -1.92 -1.94 -1.92 c-1.04 0 -1.94 0.86 -1.94 1.92 l0 4.9 l-2.5 0 l0 -14.68 l2.5 0 l0 6.18 c0.62 -0.62 1.28 -0.84 1.94 -0.84 c1.2 0 2.32 0.46 3.16 1.28 c0.84 0.86 1.3 1.98 1.3 3.16 l0 4.9 z M135.7 20.22 l-0.02 0 c-0.58 0 -1.18 -0.14 -1.74 -0.4 c-0.52 -0.22 -1 -0.58 -1.44 -1.04 c-0.7 -0.76 -1.12 -1.76 -1.22 -2.8 c-0.02 -0.18 -0.04 -0.36 -0.04 -0.56 c0 -0.4 0.06 -0.82 0.16 -1.24 c0.18 -0.8 0.56 -1.54 1.1 -2.1 c0.4 -0.44 0.86 -0.78 1.44 -1.06 c0.54 -0.26 1.14 -0.38 1.76 -0.38 c0.64 0 1.22 0.12 1.76 0.38 c0.6 0.28 1.08 0.64 1.44 1.06 c0.52 0.56 0.92 1.28 1.12 2.1 c0.1 0.38 0.14 0.78 0.14 1.24 l0 0.46 l-6.72 0 l0.02 0.14 c0.26 1.24 1.2 2.14 2.24 2.14 l0.02 0 c0.58 -0.04 1.22 -0.4 1.6 -0.72 l0.22 -0.18 l1.66 1.44 l-0.3 0.26 c-0.22 0.2 -0.5 0.44 -0.8 0.6 l-0.02 0 c-0.72 0.42 -1.5 0.64 -2.38 0.66 z M135.7 12.719999999999999 c-0.78 0 -1.56 0.54 -1.98 1.38 l-0.08 0.16 l4.14 0 l-0.08 -0.16 c-0.46 -0.86 -1.22 -1.38 -2 -1.38 z M144.42000000000002 20 l-2.52 0 l0 -9.16 l2.52 0 l0 0.74 c0.72 -0.72 1.8 -0.96 2.52 -0.96 l0.6 0 l-0.6 2.5 l-0.38 0 c-1.18 0 -2.14 0.92 -2.14 2.02 l0 4.86 z"></path></g></svg>
