<svg xmlns="http://www.w3.org/2000/svg" viewBox="0 -5 351 54.96304592556423" height="54.96304592556423" width="351" style="width: 351px; height: 54.963px; position: absolute; top: 50%; left: 50%; transform: translate(-50%, -50%) scale(0.861823); z-index: 0; cursor: pointer;"><defs id="SvgjsDefs1255"></defs><g id="SvgjsG1256" featurekey="symbolFeature-0" transform="matrix(1.011111111111111,0,0,1.011111111111111,-5.055555555555555,-30.574032592773438)" fill="#61c0bf"><path xmlns="http://www.w3.org/2000/svg" d="M38.481,69.952l-1.83,3.17H63.35l-1.83-3.17H38.481 M63.35,26.878H36.651l1.83,3.17h23.038L63.35,26.878   M40.311,33.218L30.622,50l9.689,16.782h19.378L69.378,50l-9.689-16.782H40.311 M35.736,74.707L21.471,50l14.264-24.707h28.529  L78.529,50L64.265,74.707H35.736" style="fill-rule: evenodd; clip-rule: evenodd;"></path><polyline xmlns="http://www.w3.org/2000/svg" points="77.614,35.736 82.189,27.811 95,50 82.189,72.189 77.614,64.264 85.85,50 77.614,35.736 " style="fill-rule: evenodd; clip-rule: evenodd;"></polyline><polyline xmlns="http://www.w3.org/2000/svg" points="17.811,72.189 5,50 17.811,27.811 22.386,35.736 14.151,50 22.386,64.264 17.811,72.189 " style="fill-rule: evenodd; clip-rule: evenodd;"></polyline></g><g id="SvgjsG1257" featurekey="nameFeature-0" transform="matrix(1.2700476757207981,0,0,1.2700476757207981,109.47619678025977,-7.749648566882026)" fill="#fae3d9"><path d="M14.98 11.95 l2.5931 -0.029883 l-3.7927 28.124 l-1.7576 0 l-2.9603 -16.466 l-1.7576 16.463 l-2.0351 0 l-4.07 -27.934 l2.797 -0.032188 l3.4202 19.199 l-0.5266 -4.9348 l0.86236 -6.3712 l2.4912 -0.04828 l2.4912 11.689 z M28.211 15.561 l0.5832 8.9368 l-0.33879 8.86 l-2.2635 6.04 l-4.9532 0.64616 l-3.2148 -5.9836 l-0.01918 -14.629 c-0.10117 -0.38098 1.3813 -5.9016 1.3813 -5.9016 l4.2948 -1.9163 l1.9584 0.50284 l-3.7437 2.4245 l-2.2298 4.9824 l0.069764 10.572 s1.5453 6.1956 1.7025 6.1956 s2.0244 1.6772 2.0244 1.6772 l1.8948 -1.4855 l1.52 -5.206 l0.66228 -6.9944 l-1.1498 -5.6532 l-2.6476 0.51124 l-1.6373 5.686 l0.55728 2.7142 l1.9508 -0.47908 l-0.91444 -3.4172 l1.2801 -0.28746 s0.52276 4.1676 0.52276 4.3116 c0 0.10426 -1.3061 6.5152 -1.3061 6.5152 l-1.0976 1.1023 l-0.94052 -5.5572 l-0.78416 -4.902 l1.0976 -7.4584 l3.6716 -3.8211 z M42.217 12.071000000000002 l0.14789 10.12 l-0.26524 8.746 l-0.7826 4.6948 l-2.7388 4.4128 l-2.8974 0 l-2.2942 -1.6196 s-2.0259 -5.9428 -2.0067 -6.2224 s-0.58024 -6.546 -0.58024 -6.546 l0.02375 -7.1592 l-0.02375 -6.4356 l2.7242 0.0023047 l0 4.6458 l0.23992 12.983 l1.3912 4.9692 l0.6684 2.7916 l-0.28746 -2.2758 l1.533 1.5092 l1.4372 -0.8148 l1.0064 -3.066 l0 -12.382 l1.9646 -0.45836 l-1.9646 0 l0 -7.8974 z M50.8692 36.8476 l2.83 0.19469 l0 3.0017 l-8.8992 0 l0 -27.805 l0.54805 0 l0 12.518 l0.4346 -12.518 l2.3141 0 l-0.18551 23.984 l-1.2693 0.36641 z M66.687 22.558 c0 0 0.20387 6.0908 -0.15258 6.372 c-0.35566 0.28133 -1.169 5.092 -1.4081 5.3764 s-2.5348 3.8034 -2.774 4.0876 s-6.556 1.6503 -6.556 1.6503 c-0.041408 -0.12418 -0.063632 -1.2119 -0.072812 -2.889 c1.7239 -0.31656 4.7784 -0.86616 4.7784 -0.86616 s2.6721 -4.702 2.6782 -4.9592 s1.7339 -7.6224 1.428 -7.8232 c-0.30586 -0.20008 -1.4173 -5.6364 -1.5675 -5.8332 s-3.5873 -2.469 -3.8226 -2.3456 c-0.23609 0.12266 -2.4467 1.7446 -2.4467 1.7446 l1.2433 16.196 l3.0331 -2.761 s1.4594 -6.7276 1.2257 -6.6688 c-0.23379 0.058244 -2.1708 -0.052148 -2.1708 -0.052148 l-0.4576 5.3988 l-1.2724 -10.914 l2.3961 0.37942 l2.0788 3.9138 l-0.73204 7.9036 l-2.6069 4.4456 s-2.1815 -0.57416 -3.7889 -0.89224 c0.011484 -8.2548 0.16555 -22.057 0.16555 -22.057 l4.4196 0.10578 l4.7924 3.9782 z M86.88000000000001 11.861999999999998 c0.43844 0 -4.162 12.882 -4.162 12.882 l0 15.3 l-2.8476 0 l0 -15.205 l-4.7104 -12.976 l2.6897 0 l3.1849 9.498 l0.27059 0 l0.72512 1.9799 l-0.40932 -1.9799 l2.5686 -9.498 l2.6905 0 z M97.131 15.561 l0.5832 8.9368 l-0.33879 8.86 l-2.2635 6.04 l-4.9532 0.64616 l-3.2148 -5.9836 l-0.01918 -14.629 c-0.10117 -0.38098 1.3813 -5.9016 1.3813 -5.9016 l4.2948 -1.9163 l1.9584 0.50284 l-3.7437 2.4245 l-2.2298 4.9824 l0.069764 10.572 s1.5453 6.1956 1.7025 6.1956 s2.0244 1.6772 2.0244 1.6772 l1.8948 -1.4855 l1.52 -5.206 l0.66228 -6.9944 l-1.1498 -5.6532 l-2.6476 0.51124 l-1.6373 5.686 l0.55728 2.7142 l1.9508 -0.47908 l-0.91444 -3.4172 l1.2801 -0.28746 s0.52276 4.1676 0.52276 4.3116 c0 0.10426 -1.3061 6.5152 -1.3061 6.5152 l-1.0976 1.1023 l-0.94052 -5.5572 l-0.78416 -4.902 l1.0976 -7.4584 l3.6716 -3.8211 z M111.137 12.071000000000002 l0.14789 10.12 l-0.26524 8.746 l-0.7826 4.6948 l-2.7388 4.4128 l-2.8974 0 l-2.2942 -1.6196 s-2.0259 -5.9428 -2.0067 -6.2224 s-0.58024 -6.546 -0.58024 -6.546 l0.02375 -7.1592 l-0.02375 -6.4356 l2.7242 0.0023047 l0 4.6458 l0.23992 12.983 l1.3912 4.9692 l0.6684 2.7916 l-0.28746 -2.2758 l1.533 1.5092 l1.4372 -0.8148 l1.0064 -3.066 l0 -12.382 l1.9646 -0.45836 l-1.9646 0 l0 -7.8974 z M123.0176 29.447 l0.32719 10.55 l-2.6744 0.0030469 l-0.13184 -15.924 l3.8402 -0.19008 l1.8182 -2.6353 l0.37406 -3.5934 s-0.90984 -2.2038 -1.07 -2.252 c-0.1602 -0.04754 -2.7012 -0.01918 -2.8614 -0.06746 s-0.42768 2.4912 -0.42768 2.4912 l0 2.3471 s2.1125 0.21539 2.1125 0.072072 s0.1602 -1.9163 0.1602 -1.9163 s-0.85544 0.38324 -0.90908 0.23992 s-0.053672 -2.0121 -0.053672 -2.0121 l1.6588 0.6186 l0.21308 2.1554 l-0.64156 2.3478 l-4.6832 1.1889 l-0.34875 -10.664 l3.6954 0 l2.5663 0.86236 l2.0328 2.2995 l0.53504 3.6777 s-0.32117 3.2209 -0.53504 3.5084 s-1.2839 2.6828 -1.6043 2.7786 s-2.2106 1.2149 -2.2106 1.2149 l6.0892 13.398 l-3.4003 0.016875 z M140.67759999999998 12.190000000000001 l3.4508 27.854 l-2.4912 0 l-0.89684 -6.5524 l-0.34953 -2.9028 l-0.22535 1.0103 c-0.87384 -0.10961 -3.9498 -0.17859 -3.9498 -0.17859 l-0.26445 8.4116 l-4.0312 0.21156 l0.4032 -1.714 l2.5816 -0.44688 l-2.4421 -0.14562 l2.0136 -8.556 l6.2977 0 l-1.5652 -11.978 l-2.1102 11.271 l-2.2658 0.17859 l3.6409 -16.462 l2.2038 0 z M143.81669999999994 12.059999999999999 l10.666 -0.1732 l-0.063632 3.4915 l-3.4915 -0.063632 l0.16098 20.42 l-2.1769 0.039844 l2.1808 0.48444 l0.029883 3.7851 l-3.2163 -0.058244 s-0.13566 -15.828 -0.082772 -22.162 l0.30738 -3.6923 l-0.755 1.1191 l-3.6157 -0.065936 z M166.12899999999993 12.321000000000002 l0.70596 27.722 l-2.9503 -0.065936 l-0.088164 -12.812 l0 -2.5625 l-0.3825 1.287 l-4.0228 0.010742 l0.25066 14.136 l-2.8422 -0.065936 s-0.068204 -2.298 -0.16172 -5.5672 l1.7906 -0.2591 l-1.8044 -0.23531 c-0.23226 -8.1096 -0.50436 -21.78 -0.50436 -21.78 l2.574 0.059024 l0.23609 10.462 l-1.2671 0.3227 l5.886 -0.053672 l-0.11422 -10.658 z M172.68839999999994 37.4202 l4.872 -0.25141 l0 2.7893 l-7.8032 0.08586 l0.20008 -11.168 l-0.71744 -16.712 l7.9916 -0.016094 l-0.21539 2.7273 l-5.6524 -0.14332 l1.6235 0.44228 l-0.93668 8.7436 l4.1048 0.25524 l0.12723 3.066 l-3.0745 0.10578 l-0.1993 -1.5591 z M182.89759999999993 29.447 l0.32719 10.55 l-2.6744 0.0030469 l-0.13184 -15.924 l3.8402 -0.19008 l1.8182 -2.6353 l0.37406 -3.5934 s-0.90984 -2.2038 -1.07 -2.252 c-0.1602 -0.04754 -2.7012 -0.01918 -2.8614 -0.06746 s-0.42768 2.4912 -0.42768 2.4912 l0 2.3471 s2.1125 0.21539 2.1125 0.072072 s0.1602 -1.9163 0.1602 -1.9163 s-0.85544 0.38324 -0.90908 0.23992 s-0.053672 -2.0121 -0.053672 -2.0121 l1.6588 0.6186 l0.21308 2.1554 l-0.64156 2.3478 l-4.6832 1.1889 l-0.34875 -10.664 l3.6954 0 l2.5663 0.86236 l2.0328 2.2995 l0.53504 3.6777 s-0.32117 3.2209 -0.53504 3.5084 s-1.2839 2.6828 -1.6043 2.7786 s-2.2106 1.2149 -2.2106 1.2149 l6.0892 13.398 l-3.4003 0.016875 z"></path></g></svg>
