<svg xmlns="http://www.w3.org/2000/svg" width="342" height="137" viewBox="0 0 342 137" class="css-1j8o68f"><defs id="SvgjsDefs2417"><linearGradient id="SvgjsLinearGradient2426"><stop id="SvgjsStop2427" stop-color="#2d388a" offset="0"></stop><stop id="SvgjsStop2428" stop-color="#00aeef" offset="1"></stop></linearGradient></defs><g id="SvgjsG2418" featurekey="rootContainer" transform="matrix(1,0,0,1,0,0)" fill="#fcfad4"><rect xmlns="http://www.w3.org/2000/svg" width="342" height="137" rx="10" ry="10"></rect></g><g id="SvgjsG2419" featurekey="symbolFeature-0" transform="matrix(0.7708779947009196,0,0,0.7708779947009196,17.456102654245292,30.456102654245292)" fill="#054269"><g xmlns="http://www.w3.org/2000/svg"><path d="M40,50c0-2.4,0.9-4.6,2.3-6.4c-3.5-1.7-7.3-4.7-11.7-9.4c-1.2-1.2-2.5-2.2-3.5-3.5L3.3,50l23.7,19.2c1-0.7,2.3-2.3,3.5-3.5   c4.5-4.6,8.5-7.5,12-9.1C41,54.9,40,52.5,40,50z"></path><path d="M34.2,30.6c4.6,4.5,7.4,8.5,9.1,12C45.1,41,47.4,40,50,40c2.4,0,4.6,0.9,6.4,2.3c1.7-3.5,4.7-7.3,9.4-11.7   c1.2-1.2,2.2-2.5,3.5-3.5L50,3.3L30.8,27.1C31.5,28,33.1,29.4,34.2,30.6z"></path><path d="M72.9,30.8c-1,1.2-2.2,2.4-3.5,3.5c-4,3.3-7.8,6.9-11.9,9.2c1.5,1.8,2.4,4,2.4,6.5c0,2.6-1,4.9-2.6,6.7   c4.2,2.1,8,5.8,12,9.1c1.3,1.1,2.5,2.2,3.5,3.5L96.7,50L72.9,30.8z"></path><path d="M65.8,69.4c-3.3-4-6.9-7.8-9.2-11.9c-1.8,1.5-4,2.4-6.5,2.4c-2.6,0-4.9-1-6.7-2.6c-2.1,4.2-5.7,8-9,12   c-1.1,1.3-2.2,2.5-3.5,3.5L50,96.7l19.2-23.7C68,71.9,66.8,70.8,65.8,69.4z"></path></g></g><g id="SvgjsG2420" featurekey="nameFeature-0" transform="matrix(0.88410623849623,0,0,0.88410623849623,111.71708795978785,6.455490166597329)" fill="url(#SvgjsLinearGradient2426)"><path d="M27.8 15.52 l5.84 0 l-4.52 24.48 l-8.88 0 l-3.2 -14.28 l-3.4 14.28 l-9.36 0 l-3.96 -24.48 l6.12 0 l2.76 18.32 l3.6 -14.28 l8.52 0 l3.44 14.28 z M50.556000000000004 34.64 c4.36 0 6.6 -2.8 6.6 -6.88 c0 -4.32 -2.4 -6.88 -6.6 -6.88 c-4.4 0 -6.6 2.8 -6.6 6.88 c0 4.24 2.44 6.88 6.6 6.88 z M50.556000000000004 40.2 c-7.52 0 -12.6 -5.12 -12.6 -12.44 c0 -7.56 5.32 -12.44 12.6 -12.44 c7.56 0 12.6 5.08 12.6 12.44 c0 7.6 -5.28 12.44 -12.6 12.44 z M84.432 15.52 l6 0 l0 14.48 c0 6.36 -4.56 10.2 -10.6 10.2 c-6.2 0 -10.6 -4.08 -10.6 -10.2 l0 -14.48 l6 0 l0 14.48 c0 2.88 1.72 4.64 4.6 4.64 c2.96 0 4.6 -1.72 4.6 -4.64 l0 -14.48 z M115.50800000000001 34.44 l0 5.56 l-18.2 0 l0 -24.48 l6 0 l0 18.92 l12.2 0 z M129.824 40 l-8.6 0 l0 -24.48 l8.6 0 c7.48 0 12.6 4.88 12.6 12.24 c0 7.56 -5.4 12.24 -12.6 12.24 z M127.224 21.08 l0 13.36 l2.6 0 c4.24 0 6.6 -2.68 6.6 -6.68 c0 -0.92 -0.12 -1.76 -0.36 -2.6 c-1.04 -2.92 -3.32 -4.08 -6.24 -4.08 l-2.6 0 z M166.816 40 l0 -9.08 c-4.84 -1.08 -7.64 -5.08 -7.64 -9.88 l0 -5.52 l6 0 l0 5.52 c0 2.88 1.72 4.64 4.6 4.64 c2.96 0 4.6 -1.72 4.6 -4.64 l0 -5.52 l6 0 l0 5.52 c0 4.88 -2.84 8.76 -7.56 9.88 l0 9.08 l-6 0 z M197.97199999999998 34.64 c4.36 0 6.6 -2.8 6.6 -6.88 c0 -4.32 -2.4 -6.88 -6.6 -6.88 c-4.4 0 -6.6 2.8 -6.6 6.88 c0 4.24 2.44 6.88 6.6 6.88 z M197.97199999999998 40.2 c-7.52 0 -12.6 -5.12 -12.6 -12.44 c0 -7.56 5.32 -12.44 12.6 -12.44 c7.56 0 12.6 5.08 12.6 12.44 c0 7.6 -5.28 12.44 -12.6 12.44 z M231.84799999999998 15.52 l6 0 l0 14.48 c0 6.36 -4.56 10.2 -10.6 10.2 c-6.2 0 -10.6 -4.08 -10.6 -10.2 l0 -14.48 l6 0 l0 14.48 c0 2.88 1.72 4.64 4.6 4.64 c2.96 0 4.6 -1.72 4.6 -4.64 l0 -14.48 z"></path></g><g id="SvgjsG2421" featurekey="sloganFeature-0" transform="matrix(4.506065872781003,0,0,4.506065872781003,113,26.405546616121377)" fill="#137dc5"><path d="M5.48 20.04 l-2.04 0 l-1.1 -3.02 l-0.44 0 l0 3.02 l-1.9 0 l0 -14.32 l2.98 0 c1.32 0 2.38 1.06 2.38 2.38 l0 6.54 c0 0.86 -0.44 1.6 -1.12 2.02 z M1.9 7.619999999999999 l0 7.5 l1.08 0 c0.26 0 0.48 -0.22 0.48 -0.48 l0 -6.54 c0 -0.26 -0.22 -0.48 -0.48 -0.48 l-1.08 0 z M13.188 20 l-0.72 -4.94 l-2.02 0 l-0.66 4.94 l-1.92 0 l2.16 -14.3 l2.58 0 l2.5 14.3 l-1.92 0 z M10.708 13.16 l1.48 0 l-0.76 -5.2 z M22.716 5.68 l0 1.92 l-2.38 0 l0 12.42 l-1.92 0 l0 -12.42 l-2.62 0 l0 -1.92 l6.92 0 z M28.684000000000005 5.720000000000001 l1.9 0 l0 14.26 l-1.9 0 l0 -7.54 l-1.7 0 l0 7.54 l-1.9 0 l0 -14.26 l1.9 0 l0 4.84 l1.7 0 l0 -4.84 z M37.952 12.46 l-2.76 0 l0 5.64 l2.78 0 l0 1.9 l-4.68 0 l0 -14.28 l4.68 0 l0 1.9 l-2.78 0 l0 2.94 l2.76 0 l0 1.9 z M46.16 20.04 l-2.04 0 l-1.1 -3.02 l-0.44 0 l0 3.02 l-1.9 0 l0 -14.32 l2.98 0 c1.32 0 2.38 1.06 2.38 2.38 l0 6.54 c0 0.86 -0.44 1.6 -1.12 2.02 z M42.58 7.619999999999999 l0 7.5 l1.08 0 c0.26 0 0.48 -0.22 0.48 -0.48 l0 -6.54 c0 -0.26 -0.22 -0.48 -0.48 -0.48 l-1.08 0 z"></path></g></svg>
